<?xml version="1.0" encoding="utf-8"?>
<!-- Generator: Adobe Illustrator 19.2.1, SVG Export Plug-In . SVG Version: 6.00 Build 0)  -->
<svg version="1.1" id="artwork" xmlns="http://www.w3.org/2000/svg" xmlns:xlink="http://www.w3.org/1999/xlink" x="0px" y="0px"
	 viewBox="0 0 168.8 50" style="enable-background:new 0 0 168.8 50;" xml:space="preserve">
<style type="text/css">
	.st0{fill:#FFFFFF;}
	.st1{fill:#454545;}
	.st2{fill:url(#SVGID_1_);}
	.st3{fill:url(#SVGID_2_);}
	.st4{fill:url(#SVGID_3_);}
	.st5{fill:url(#SVGID_4_);}
	.st6{opacity:0.2;enable-background:new    ;}
	.st7{opacity:0.12;enable-background:new    ;}
	.st8{opacity:0.25;fill:#FFFFFF;enable-background:new    ;}
</style>
<g>
	<g>
		<path class="st0" d="M162.5,50H6.3C2.8,50,0,47.2,0,43.8V6.3C0,2.8,2.8,0,6.3,0h156.3c3.4,0,6.3,2.8,6.3,6.3v37.5
			C168.8,47.2,165.9,50,162.5,50z"/>
	</g>
	<g>
		<g>
			<path class="st1" d="M59.3,12.8c0,1-0.3,1.9-0.9,2.5c-0.7,0.7-1.6,1.1-2.8,1.1c-1.1,0-2-0.4-2.8-1.1c-0.8-0.8-1.1-1.7-1.1-2.8
				c0-1.1,0.4-2,1.1-2.8c0.8-0.8,1.7-1.1,2.8-1.1c0.5,0,1.1,0.1,1.5,0.3c0.5,0.2,0.9,0.5,1.2,0.8l-0.7,0.7c-0.5-0.6-1.2-0.9-2.1-0.9
				c-0.8,0-1.5,0.3-2,0.8c-0.6,0.6-0.9,1.3-0.9,2.2s0.3,1.6,0.9,2.2c0.6,0.6,1.3,0.8,2,0.8c0.8,0,1.5-0.3,2.1-0.8
				c0.4-0.4,0.6-0.9,0.6-1.5h-2.7v-0.9h3.6C59.3,12.4,59.3,12.6,59.3,12.8z"/>
			<path class="st1" d="M55.6,16.5c-1.1,0-2.1-0.4-2.8-1.2c-0.8-0.8-1.2-1.7-1.2-2.9s0.4-2.1,1.2-2.9c0.8-0.8,1.7-1.2,2.8-1.2
				c0.6,0,1.1,0.1,1.6,0.3c0.5,0.2,0.9,0.5,1.2,0.9l0.1,0.1l-0.8,0.8l-0.1-0.1c-0.5-0.6-1.1-0.8-2-0.8c-0.8,0-1.4,0.3-2,0.8
				c-0.5,0.5-0.8,1.2-0.8,2.1c0,0.8,0.3,1.5,0.8,2.1c0.5,0.5,1.2,0.8,2,0.8c0.8,0,1.5-0.3,2-0.8c0.3-0.3,0.5-0.8,0.6-1.3h-2.7v-1.2
				h3.9l0,0.1c0,0.2,0.1,0.4,0.1,0.6c0,1.1-0.3,1.9-1,2.6C57.7,16.2,56.7,16.5,55.6,16.5z M55.6,8.7c-1,0-1.9,0.4-2.7,1.1
				s-1.1,1.6-1.1,2.7s0.4,2,1.1,2.7c0.7,0.7,1.6,1.1,2.7,1.1c1.1,0,2-0.4,2.7-1.1c0.6-0.6,0.9-1.4,0.9-2.4c0-0.1,0-0.3,0-0.4h-3.4
				V13h2.7l0,0.1c-0.1,0.7-0.3,1.2-0.7,1.6c-0.6,0.6-1.3,0.9-2.2,0.9c-0.8,0-1.5-0.3-2.1-0.9c-0.6-0.6-0.9-1.3-0.9-2.3
				c0-0.9,0.3-1.7,0.9-2.3c0.6-0.6,1.3-0.9,2.1-0.9c0.9,0,1.5,0.3,2.1,0.8l0.5-0.5c-0.3-0.3-0.6-0.5-1.1-0.7
				C56.6,8.8,56.1,8.7,55.6,8.7z"/>
		</g>
		<g>
			<path class="st1" d="M65,9.7h-3.4V12h3.1V13h-3.1v2.4H65v0.9h-4.4V8.8H65V9.7z"/>
			<path class="st1" d="M65.2,16.4h-4.6V8.6h4.6v1.2h-3.4v2.1h3.1v1.2h-3.1v2.1h3.4V16.4z M60.8,16.1h4.1v-0.7h-3.4v-2.6h3.1v-0.7
				h-3.1V9.5h3.4V8.9h-4.1V16.1z"/>
		</g>
		<g>
			<path class="st1" d="M69.1,16.3h-1V9.7H66V8.8h5.2v0.9h-2.1V16.3z"/>
			<path class="st1" d="M69.2,16.4H68V9.8h-2.1V8.6h5.4v1.2h-2.1V16.4z M68.3,16.1H69V9.5h2.1V8.9h-4.9v0.7h2.1V16.1z"/>
		</g>
		<g>
			<path class="st1" d="M74.9,16.3V8.8h1v7.5H74.9z"/>
			<path class="st1" d="M76,16.4h-1.2V8.6H76V16.4z M75,16.1h0.7V8.9H75V16.1z"/>
		</g>
		<g>
			<path class="st1" d="M80.2,16.3h-1V9.7h-2.1V8.8h5.2v0.9h-2.1V16.3z"/>
			<path class="st1" d="M80.3,16.4h-1.2V9.8H77V8.6h5.4v1.2h-2.1V16.4z M79.3,16.1H80V9.5h2.1V8.9h-4.9v0.7h2.1V16.1z"/>
		</g>
		<g>
			<path class="st1" d="M92,15.3c-0.7,0.8-1.7,1.1-2.8,1.1c-1.1,0-2-0.4-2.7-1.1c-0.7-0.8-1.1-1.7-1.1-2.8s0.4-2,1.1-2.8
				c0.7-0.8,1.7-1.1,2.7-1.1c1.1,0,2,0.4,2.7,1.1c0.7,0.8,1.1,1.7,1.1,2.8C93.1,13.6,92.7,14.5,92,15.3z M87.2,14.7
				c0.6,0.6,1.2,0.8,2,0.8s1.5-0.3,2-0.8c0.6-0.6,0.8-1.3,0.8-2.2s-0.3-1.6-0.8-2.2c-0.6-0.6-1.2-0.8-2-0.8s-1.5,0.3-2,0.8
				c-0.6,0.6-0.8,1.3-0.8,2.2S86.7,14.1,87.2,14.7z"/>
			<path class="st1" d="M89.3,16.5c-1.1,0-2.1-0.4-2.8-1.2c-0.8-0.8-1.1-1.7-1.1-2.9c0-1.1,0.4-2.1,1.1-2.9c0.8-0.8,1.7-1.2,2.8-1.2
				c1.1,0,2.1,0.4,2.8,1.2c0.8,0.8,1.1,1.7,1.1,2.9c0,1.1-0.4,2.1-1.1,2.9l0,0C91.3,16.1,90.4,16.5,89.3,16.5z M89.3,8.7
				c-1.1,0-2,0.4-2.7,1.1c-0.7,0.7-1.1,1.6-1.1,2.7c0,1.1,0.4,2,1.1,2.7c0.7,0.7,1.6,1.1,2.7,1.1c1.1,0,2-0.4,2.7-1.1l0,0
				c0.7-0.7,1.1-1.6,1.1-2.7c0-1.1-0.4-2-1.1-2.7C91.2,9.1,90.3,8.7,89.3,8.7z M89.3,15.6c-0.8,0-1.5-0.3-2.1-0.9l0,0
				c-0.6-0.6-0.9-1.3-0.9-2.2c0-0.9,0.3-1.7,0.9-2.2c0.6-0.6,1.3-0.9,2.1-0.9c0.8,0,1.6,0.3,2.1,0.9c0.6,0.6,0.9,1.3,0.9,2.2
				c0,0.9-0.3,1.7-0.9,2.2C90.8,15.3,90.1,15.6,89.3,15.6z M87.3,14.6c0.5,0.5,1.2,0.8,1.9,0.8c0.8,0,1.4-0.3,1.9-0.8
				c0.5-0.5,0.8-1.2,0.8-2.1c0-0.8-0.3-1.5-0.8-2.1c-0.5-0.5-1.2-0.8-1.9-0.8c-0.8,0-1.4,0.3-1.9,0.8c-0.5,0.5-0.8,1.2-0.8,2.1
				C86.5,13.3,86.8,14,87.3,14.6L87.3,14.6z"/>
		</g>
		<g>
			<path class="st1" d="M94.5,16.3V8.8h1.2l3.6,5.8h0l0-1.4V8.8h1v7.5h-1l-3.8-6.1h0l0,1.4v4.7H94.5z"/>
			<path class="st1" d="M100.4,16.4h-1.2l0-0.1l-3.6-5.8l0,1.1v4.8h-1.2V8.6h1.4l3.5,5.6l0-1.1V8.6h1.2V16.4z M99.3,16.1h0.8V8.9
				h-0.7v4.3l0,1.6h-0.2l-3.6-5.8h-1v7.2h0.7v-4.5l0-1.6h0.2l0,0.1L99.3,16.1z"/>
		</g>
	</g>
	<path class="st1" d="M85.2,27.2c-2.9,0-5.3,2.2-5.3,5.3c0,3.1,2.4,5.3,5.3,5.3c2.9,0,5.3-2.3,5.3-5.3
		C90.5,29.4,88.1,27.2,85.2,27.2z M85.2,35.7c-1.6,0-3-1.3-3-3.2c0-1.9,1.4-3.2,3-3.2s3,1.3,3,3.2C88.2,34.4,86.8,35.7,85.2,35.7z
		 M73.5,27.2c-2.9,0-5.3,2.2-5.3,5.3c0,3.1,2.4,5.3,5.3,5.3c2.9,0,5.3-2.3,5.3-5.3C78.9,29.4,76.5,27.2,73.5,27.2z M73.5,35.7
		c-1.6,0-3-1.3-3-3.2c0-1.9,1.4-3.2,3-3.2c1.6,0,3,1.3,3,3.2C76.5,34.4,75.1,35.7,73.5,35.7z M59.7,28.8v2.3h5.4
		c-0.2,1.3-0.6,2.2-1.2,2.8c-0.8,0.8-2,1.7-4.2,1.7c-3.3,0-5.9-2.7-5.9-6c0-3.3,2.6-6,5.9-6c1.8,0,3.1,0.7,4.1,1.6l1.6-1.6
		c-1.3-1.3-3.1-2.3-5.7-2.3c-4.6,0-8.4,3.7-8.4,8.3c0,4.6,3.8,8.3,8.4,8.3c2.5,0,4.3-0.8,5.8-2.3c1.5-1.5,2-3.6,2-5.3
		c0-0.5,0-1-0.1-1.4H59.7z M116.3,30.6c-0.4-1.2-1.8-3.4-4.6-3.4c-2.7,0-5,2.2-5,5.3c0,3,2.3,5.3,5.3,5.3c2.4,0,3.8-1.5,4.4-2.4
		l-1.8-1.2c-0.6,0.9-1.4,1.5-2.6,1.5c-1.2,0-2-0.5-2.6-1.6l7.1-2.9L116.3,30.6z M109.1,32.3c-0.1-2.1,1.6-3.1,2.8-3.1
		c0.9,0,1.7,0.5,2,1.1L109.1,32.3z M103.3,37.5h2.3V21.9h-2.3V37.5z M99.5,28.4L99.5,28.4c-0.6-0.6-1.6-1.2-2.9-1.2
		c-2.7,0-5.1,2.3-5.1,5.3c0,3,2.4,5.3,5.1,5.3c1.3,0,2.3-0.6,2.8-1.2h0.1v0.8c0,2-1.1,3.1-2.8,3.1c-1.4,0-2.3-1-2.7-1.9l-2,0.8
		c0.6,1.4,2.1,3.1,4.7,3.1c2.7,0,5.1-1.6,5.1-5.5v-9.5h-2.2V28.4z M96.8,35.7c-1.6,0-3-1.3-3-3.2c0-1.9,1.3-3.2,3-3.2
		c1.6,0,2.8,1.4,2.8,3.2C99.6,34.4,98.4,35.7,96.8,35.7z M127.3,21.9h-5.6v15.6h2.3v-5.9h3.3c2.6,0,5.1-1.9,5.1-4.9
		S129.8,21.9,127.3,21.9z M127.3,29.4H124V24h3.3c1.7,0,2.7,1.4,2.7,2.7C130.1,27.9,129.1,29.4,127.3,29.4z M141.7,27.2
		c-1.7,0-3.4,0.7-4.2,2.4l2.1,0.9c0.4-0.9,1.3-1.1,2.1-1.1c1.2,0,2.4,0.7,2.5,2v0.2c-0.4-0.2-1.3-0.6-2.4-0.6
		c-2.2,0-4.5,1.2-4.5,3.5c0,2.1,1.8,3.4,3.9,3.4c1.6,0,2.4-0.7,3-1.5h0.1v1.2h2.3v-6C146.5,28.7,144.4,27.2,141.7,27.2z M141.5,35.7
		c-0.8,0-1.8-0.4-1.8-1.3c0-1.2,1.3-1.7,2.5-1.7c1,0,1.5,0.2,2.1,0.5C144,34.7,142.8,35.7,141.5,35.7z M154.7,27.5l-2.7,6.8h-0.1
		l-2.8-6.8h-2.5l4.2,9.5l-2.4,5.3h2.4l6.4-14.7H154.7z M133.7,37.5h2.3V21.9h-2.3V37.5z"/>
	
		<linearGradient id="SVGID_1_" gradientUnits="userSpaceOnUse" x1="27.2495" y1="244.8457" x2="6.2715" y2="223.8677" gradientTransform="matrix(1 0 0 -1 0 255.733)">
		<stop  offset="0" style="stop-color:#00A0FF"/>
		<stop  offset="6.574450e-003" style="stop-color:#00A1FF"/>
		<stop  offset="0.2601" style="stop-color:#00BEFF"/>
		<stop  offset="0.5122" style="stop-color:#00D2FF"/>
		<stop  offset="0.7604" style="stop-color:#00DFFF"/>
		<stop  offset="1" style="stop-color:#00E3FF"/>
	</linearGradient>
	<path class="st2" d="M13,9.4c-0.4,0.4-0.6,1-0.6,1.8v27.6c0,0.8,0.2,1.4,0.6,1.8l0.1,0.1l15.5-15.5V25v-0.2L13,9.4L13,9.4z"/>
	
		<linearGradient id="SVGID_2_" gradientUnits="userSpaceOnUse" x1="42.2928" y1="230.7311" x2="12.0467" y2="230.7311" gradientTransform="matrix(1 0 0 -1 0 255.733)">
		<stop  offset="0" style="stop-color:#FFE000"/>
		<stop  offset="0.4087" style="stop-color:#FFBD00"/>
		<stop  offset="0.7754" style="stop-color:#FFA500"/>
		<stop  offset="1" style="stop-color:#FF9C00"/>
	</linearGradient>
	<path class="st3" d="M33.8,30.3l-5.2-5.2V25v-0.2l5.2-5.2l0.1,0.1l6.1,3.5c1.7,1,1.7,2.6,0,3.6l-6.1,3.5L33.8,30.3z"/>
	
		<linearGradient id="SVGID_3_" gradientUnits="userSpaceOnUse" x1="31.0336" y1="227.8627" x2="2.5857" y2="199.4149" gradientTransform="matrix(1 0 0 -1 0 255.733)">
		<stop  offset="0" style="stop-color:#FF3A44"/>
		<stop  offset="1" style="stop-color:#C31162"/>
	</linearGradient>
	<path class="st4" d="M33.9,30.3L28.6,25L13,40.6c0.6,0.6,1.5,0.7,2.6,0.1L33.9,30.3"/>
	
		<linearGradient id="SVGID_4_" gradientUnits="userSpaceOnUse" x1="9.1215" y1="255.5126" x2="21.8247" y2="242.8095" gradientTransform="matrix(1 0 0 -1 0 255.733)">
		<stop  offset="0" style="stop-color:#32A071"/>
		<stop  offset="6.850000e-002" style="stop-color:#2DA771"/>
		<stop  offset="0.4762" style="stop-color:#15CF74"/>
		<stop  offset="0.8009" style="stop-color:#06E775"/>
		<stop  offset="1" style="stop-color:#00F076"/>
	</linearGradient>
	<path class="st5" d="M33.9,19.7L15.6,9.3c-1.1-0.6-2-0.5-2.6,0.1L28.6,25L33.9,19.7z"/>
	<g>
		<path class="st6" d="M33.8,30.2L15.6,40.5c-1,0.6-1.9,0.5-2.5,0l0,0L13,40.6l0,0l0.1,0.1l0,0c0.6,0.5,1.5,0.6,2.5,0l18.3-10.4
			L33.8,30.2z"/>
		<path class="st7" d="M13,40.4c-0.4-0.4-0.6-1-0.6-1.8v0.2c0,0.8,0.2,1.4,0.6,1.8V40.4L13,40.4z"/>
	</g>
	<path class="st7" d="M40,26.6l-6.2,3.5l0.1,0.1l6.1-3.5c0.9-0.5,1.3-1.2,1.3-1.8l0,0C41.3,25.6,40.8,26.2,40,26.6z"/>
	<path class="st8" d="M15.6,9.5L40,23.4c0.8,0.4,1.2,1,1.3,1.6l0,0c0-0.7-0.4-1.3-1.3-1.8L15.6,9.3c-1.7-1-3.2-0.2-3.2,1.8v0.2
		C12.5,9.4,13.9,8.5,15.6,9.5z"/>
</g>
</svg>
