<?xml version="1.0" encoding="utf-8"?>
<!-- Generator: Adobe Illustrator 19.2.1, SVG Export Plug-In . SVG Version: 6.00 Build 0)  -->
<svg version="1.1" id="US_UK_Download_on_the" xmlns="http://www.w3.org/2000/svg" xmlns:xlink="http://www.w3.org/1999/xlink"
	 x="0px" y="0px" viewBox="0 0 174.2 50" style="enable-background:new 0 0 174.2 50;" xml:space="preserve">
<style type="text/css">
	.st0{fill:#FFFFFF;}
	.st1{fill:#454545;}
</style>
<path class="st0" d="M174.2,45c0,2.8-2.2,5-5,5H5c-2.8,0-5-2.2-5-5V5c0-2.8,2.3-5,5-5h164.2c2.8,0,5,2.3,5,5L174.2,45L174.2,45z"/>
<g>
	<g>
		<path class="st1" d="M38.3,24.7c0-4.2,3.5-6.3,3.6-6.4c-2-2.9-5-3.3-6.1-3.3c-2.6-0.3-5.1,1.5-6.4,1.5c-1.3,0-3.4-1.5-5.5-1.5
			c-2.8,0-5.4,1.7-6.9,4.2c-3,5.1-0.8,12.7,2.1,16.8c1.4,2,3.1,4.3,5.3,4.2c2.1-0.1,2.9-1.4,5.5-1.4c2.5,0,3.3,1.4,5.5,1.3
			c2.3,0,3.7-2,5.1-4.1c1.6-2.3,2.3-4.6,2.3-4.7C42.7,31.5,38.3,29.8,38.3,24.7z"/>
		<path class="st1" d="M34.1,12.3c1.1-1.4,1.9-3.4,1.7-5.4c-1.7,0.1-3.7,1.1-4.9,2.5c-1.1,1.2-2,3.3-1.8,5.2
			C31,14.8,32.9,13.7,34.1,12.3z"/>
	</g>
</g>
<g>
	<path class="st1" d="M69,40.1h-3l-1.6-5.1h-5.7l-1.6,5.1h-2.9l5.6-17.4h3.5L69,40.1z M63.9,32.8l-1.5-4.5c-0.2-0.5-0.4-1.6-0.9-3.3
		h-0.1c-0.2,0.7-0.4,1.8-0.8,3.3l-1.4,4.5H63.9z"/>
	<path class="st1" d="M83.5,33.6c0,2.1-0.6,3.8-1.7,5.1c-1,1.1-2.3,1.7-3.8,1.7c-1.7,0-2.8-0.6-3.6-1.8h-0.1v6.6h-2.8V31.6
		c0-1.3,0-2.7-0.1-4.1h2.5l0.2,2H74c0.9-1.5,2.3-2.2,4.2-2.2c1.5,0,2.7,0.6,3.7,1.8C83,30.2,83.5,31.7,83.5,33.6z M80.6,33.7
		c0-1.2-0.3-2.2-0.8-3c-0.6-0.8-1.4-1.2-2.4-1.2c-0.7,0-1.3,0.2-1.9,0.7c-0.6,0.5-0.9,1.1-1.1,1.8c-0.1,0.3-0.1,0.6-0.1,0.9v2.1
		c0,0.9,0.3,1.7,0.8,2.3s1.3,0.9,2.2,0.9c1.1,0,1.9-0.4,2.5-1.2C80.3,36.1,80.6,35.1,80.6,33.7z"/>
	<path class="st1" d="M97.9,33.6c0,2.1-0.6,3.8-1.7,5.1c-1,1.1-2.3,1.7-3.8,1.7c-1.7,0-2.8-0.6-3.6-1.8h-0.1v6.6h-2.8V31.6
		c0-1.3,0-2.7-0.1-4.1h2.5l0.2,2h0.1c0.9-1.5,2.3-2.2,4.2-2.2c1.5,0,2.7,0.6,3.7,1.8C97.4,30.2,97.9,31.7,97.9,33.6z M95.1,33.7
		c0-1.2-0.3-2.2-0.8-3c-0.6-0.8-1.4-1.2-2.4-1.2c-0.7,0-1.3,0.2-1.9,0.7c-0.6,0.5-0.9,1.1-1.1,1.8c-0.1,0.3-0.1,0.6-0.1,0.9v2.1
		c0,0.9,0.3,1.7,0.8,2.3c0.6,0.6,1.3,0.9,2.2,0.9c1.1,0,1.9-0.4,2.5-1.2C94.8,36.1,95.1,35.1,95.1,33.7z"/>
	<path class="st1" d="M114,35.2c0,1.5-0.5,2.7-1.5,3.6c-1.1,1-2.7,1.5-4.7,1.5c-1.9,0-3.4-0.4-4.5-1.1l0.6-2.3
		c1.2,0.7,2.6,1.1,4,1.1c1.1,0,1.9-0.2,2.5-0.7c0.6-0.5,0.9-1.1,0.9-1.9c0-0.7-0.2-1.3-0.7-1.8c-0.5-0.5-1.3-0.9-2.4-1.3
		c-3-1.1-4.6-2.8-4.6-5c0-1.4,0.5-2.6,1.6-3.5c1.1-0.9,2.5-1.4,4.3-1.4c1.6,0,2.9,0.3,4,0.8l-0.7,2.3c-1-0.5-2.1-0.8-3.3-0.8
		c-1,0-1.7,0.2-2.3,0.7c-0.5,0.4-0.7,1-0.7,1.6c0,0.7,0.3,1.3,0.8,1.7c0.5,0.4,1.3,0.9,2.5,1.3c1.5,0.6,2.6,1.3,3.3,2.1
		C113.7,33,114,34,114,35.2z"/>
	<path class="st1" d="M123.3,29.6h-3.1v6.1c0,1.6,0.5,2.3,1.6,2.3c0.5,0,0.9,0,1.2-0.1l0.1,2.1c-0.5,0.2-1.3,0.3-2.2,0.3
		c-1.1,0-2-0.3-2.6-1c-0.6-0.7-0.9-1.8-0.9-3.4v-6.3h-1.8v-2.1h1.8v-2.3l2.7-0.8v3.1h3.1L123.3,29.6z"/>
	<path class="st1" d="M137.1,33.7c0,1.9-0.6,3.5-1.7,4.8c-1.2,1.3-2.7,1.9-4.6,1.9c-1.8,0-3.3-0.6-4.4-1.8s-1.6-2.8-1.6-4.6
		c0-1.9,0.6-3.5,1.7-4.8c1.1-1.2,2.6-1.9,4.6-1.9c1.8,0,3.3,0.6,4.4,1.8C136.6,30.3,137.1,31.8,137.1,33.7z M134.3,33.8
		c0-1.2-0.2-2.2-0.7-3c-0.6-1-1.4-1.5-2.5-1.5c-1.1,0-2,0.5-2.6,1.5c-0.5,0.8-0.7,1.8-0.7,3c0,1.2,0.2,2.2,0.7,3
		c0.6,1,1.4,1.5,2.5,1.5c1.1,0,1.9-0.5,2.5-1.5C134,35.9,134.3,34.9,134.3,33.8z"/>
	<path class="st1" d="M146.2,30c-0.3-0.1-0.6-0.1-0.9-0.1c-1,0-1.7,0.4-2.3,1.1c-0.5,0.7-0.7,1.5-0.7,2.5v6.6h-2.8l0-8.6
		c0-1.4,0-2.8-0.1-4h2.4l0.1,2.4h0.1c0.3-0.8,0.8-1.5,1.4-2c0.6-0.4,1.3-0.7,2-0.7c0.3,0,0.5,0,0.7,0.1L146.2,30z"/>
	<path class="st1" d="M158.7,33.2c0,0.5,0,0.9-0.1,1.3h-8.4c0,1.2,0.4,2.2,1.2,2.8c0.7,0.6,1.6,0.9,2.7,0.9c1.2,0,2.4-0.2,3.4-0.6
		l0.4,1.9c-1.2,0.5-2.6,0.8-4.2,0.8c-1.9,0-3.5-0.6-4.6-1.7c-1.1-1.1-1.7-2.7-1.7-4.6c0-1.9,0.5-3.5,1.6-4.7c1.1-1.3,2.5-2,4.4-2
		c1.8,0,3.2,0.7,4.1,2C158.3,30.3,158.7,31.6,158.7,33.2z M156,32.5c0-0.8-0.2-1.5-0.5-2.1c-0.5-0.8-1.2-1.2-2.2-1.2
		c-0.9,0-1.7,0.4-2.2,1.1c-0.5,0.6-0.7,1.3-0.8,2.2L156,32.5L156,32.5z"/>
</g>
<g>
	<g>
		<path class="st1" d="M63,11.9c0,1.5-0.5,2.7-1.4,3.5c-0.9,0.7-2.1,1.1-3.6,1.1c-0.8,0-1.4,0-2-0.1V8c0.7-0.1,1.5-0.2,2.4-0.2
			c1.5,0,2.6,0.3,3.4,1C62.6,9.5,63,10.6,63,11.9z M61.6,12c0-1-0.3-1.8-0.8-2.3c-0.5-0.5-1.3-0.8-2.3-0.8c-0.4,0-0.8,0-1.1,0.1v6.4
			c0.2,0,0.5,0,0.9,0c1,0,1.9-0.3,2.4-0.9C61.3,13.9,61.6,13.1,61.6,12z"/>
		<path class="st1" d="M70.7,13.3c0,0.9-0.3,1.7-0.8,2.3c-0.6,0.6-1.3,0.9-2.3,0.9c-0.9,0-1.6-0.3-2.2-0.9c-0.5-0.6-0.8-1.4-0.8-2.3
			c0-1,0.3-1.7,0.8-2.3c0.6-0.6,1.3-0.9,2.2-0.9c0.9,0,1.6,0.3,2.2,0.9C70.4,11.6,70.7,12.4,70.7,13.3z M69.3,13.3
			c0-0.6-0.1-1.1-0.4-1.5c-0.3-0.5-0.7-0.7-1.2-0.7c-0.6,0-1,0.2-1.3,0.7c-0.2,0.4-0.4,0.9-0.4,1.5c0,0.6,0.1,1.1,0.4,1.5
			c0.3,0.5,0.7,0.7,1.2,0.7c0.5,0,0.9-0.2,1.2-0.8C69.1,14.4,69.3,13.9,69.3,13.3z"/>
		<path class="st1" d="M81,10.2L79,16.4h-1.3L77,13.7c-0.2-0.7-0.4-1.3-0.5-2h0c-0.1,0.7-0.3,1.3-0.5,2l-0.8,2.7h-1.3L72,10.2h1.4
			l0.7,2.9c0.2,0.7,0.3,1.4,0.4,2h0c0.1-0.5,0.3-1.2,0.5-2l0.9-2.9h1.1l0.8,2.9c0.2,0.7,0.4,1.4,0.5,2h0c0.1-0.6,0.2-1.3,0.4-2
			l0.7-2.9L81,10.2L81,10.2z"/>
		<path class="st1" d="M88.1,16.4h-1.4v-3.5c0-1.1-0.4-1.6-1.2-1.6c-0.4,0-0.7,0.1-1,0.4c-0.3,0.3-0.4,0.7-0.4,1.1v3.7h-1.4V12
			c0-0.5,0-1.1,0-1.8h1.2l0.1,1h0c0.2-0.3,0.4-0.5,0.7-0.7c0.4-0.2,0.8-0.3,1.2-0.3c0.6,0,1.1,0.2,1.4,0.6c0.5,0.5,0.7,1.1,0.7,2
			V16.4z"/>
		<path class="st1" d="M91.9,16.4h-1.4v-9h1.4V16.4z"/>
		<path class="st1" d="M99.9,13.3c0,0.9-0.3,1.7-0.8,2.3c-0.6,0.6-1.3,0.9-2.3,0.9c-0.9,0-1.6-0.3-2.2-0.9c-0.5-0.6-0.8-1.4-0.8-2.3
			c0-1,0.3-1.7,0.8-2.3c0.6-0.6,1.3-0.9,2.2-0.9c0.9,0,1.6,0.3,2.2,0.9C99.7,11.6,99.9,12.4,99.9,13.3z M98.5,13.3
			c0-0.6-0.1-1.1-0.4-1.5c-0.3-0.5-0.7-0.7-1.2-0.7c-0.6,0-1,0.2-1.3,0.7c-0.2,0.4-0.4,0.9-0.4,1.5c0,0.6,0.1,1.1,0.4,1.5
			c0.3,0.5,0.7,0.7,1.2,0.7c0.5,0,0.9-0.2,1.2-0.8C98.4,14.4,98.5,13.9,98.5,13.3z"/>
		<path class="st1" d="M106.6,16.4h-1.2l-0.1-0.7h0c-0.4,0.6-1,0.9-1.8,0.9c-0.6,0-1.1-0.2-1.4-0.6c-0.3-0.3-0.5-0.8-0.5-1.3
			c0-0.8,0.3-1.3,0.9-1.7c0.6-0.4,1.5-0.6,2.7-0.6v-0.1c0-0.8-0.4-1.2-1.3-1.2c-0.6,0-1.1,0.2-1.6,0.5l-0.3-0.9
			c0.6-0.4,1.3-0.5,2.1-0.5c1.6,0,2.4,0.9,2.4,2.6v2.3C106.5,15.6,106.5,16.1,106.6,16.4z M105.2,14.3v-1c-1.5,0-2.3,0.4-2.3,1.2
			c0,0.3,0.1,0.6,0.3,0.7c0.2,0.2,0.4,0.2,0.7,0.2c0.3,0,0.6-0.1,0.8-0.3c0.3-0.2,0.4-0.4,0.5-0.7C105.1,14.5,105.2,14.4,105.2,14.3
			z"/>
		<path class="st1" d="M114.4,16.4h-1.2l-0.1-1h0c-0.4,0.8-1.1,1.1-2,1.1c-0.7,0-1.4-0.3-1.9-0.9c-0.5-0.6-0.7-1.3-0.7-2.3
			c0-1,0.3-1.8,0.8-2.4c0.5-0.6,1.2-0.9,1.9-0.9c0.8,0,1.4,0.3,1.7,0.8h0V7.4h1.4v7.3C114.3,15.4,114.3,15.9,114.4,16.4z
			 M112.9,13.8v-1c0-0.2,0-0.3,0-0.4c-0.1-0.3-0.2-0.6-0.5-0.8c-0.3-0.2-0.6-0.3-0.9-0.3c-0.5,0-0.9,0.2-1.2,0.6
			c-0.3,0.4-0.4,0.9-0.4,1.6c0,0.6,0.1,1.1,0.4,1.5c0.3,0.4,0.7,0.6,1.2,0.6c0.5,0,0.8-0.2,1.1-0.5
			C112.8,14.6,112.9,14.3,112.9,13.8z"/>
		<path class="st1" d="M126.1,13.3c0,0.9-0.3,1.7-0.8,2.3c-0.6,0.6-1.3,0.9-2.3,0.9c-0.9,0-1.6-0.3-2.2-0.9
			c-0.5-0.6-0.8-1.4-0.8-2.3c0-1,0.3-1.7,0.8-2.3c0.6-0.6,1.3-0.9,2.2-0.9c0.9,0,1.6,0.3,2.2,0.9C125.8,11.6,126.1,12.4,126.1,13.3z
			 M124.7,13.3c0-0.6-0.1-1.1-0.4-1.5c-0.3-0.5-0.7-0.7-1.2-0.7c-0.5,0-1,0.2-1.3,0.7c-0.2,0.4-0.4,0.9-0.4,1.5
			c0,0.6,0.1,1.1,0.4,1.5c0.3,0.5,0.7,0.7,1.2,0.7c0.5,0,0.9-0.2,1.2-0.8C124.5,14.4,124.7,13.9,124.7,13.3z"/>
		<path class="st1" d="M133.5,16.4h-1.4v-3.5c0-1.1-0.4-1.6-1.2-1.6c-0.4,0-0.7,0.1-1,0.4c-0.3,0.3-0.4,0.7-0.4,1.1v3.7h-1.4V12
			c0-0.5,0-1.1,0-1.8h1.2l0.1,1h0c0.2-0.3,0.4-0.5,0.7-0.7c0.4-0.2,0.8-0.3,1.2-0.3c0.6,0,1.1,0.2,1.4,0.6c0.5,0.5,0.7,1.1,0.7,2
			V16.4z"/>
		<path class="st1" d="M142.7,11.3h-1.5v3c0,0.8,0.3,1.1,0.8,1.1c0.2,0,0.5,0,0.6-0.1l0,1c-0.3,0.1-0.6,0.2-1.1,0.2
			c-0.5,0-1-0.2-1.3-0.5c-0.3-0.3-0.5-0.9-0.5-1.7v-3.1h-0.9v-1h0.9V9.1l1.3-0.4v1.5h1.5L142.7,11.3L142.7,11.3z"/>
		<path class="st1" d="M150,16.4h-1.4v-3.5c0-1.1-0.4-1.7-1.2-1.7c-0.6,0-1.1,0.3-1.3,1c0,0.1-0.1,0.3-0.1,0.5v3.7h-1.4v-9h1.4v3.7
			h0c0.4-0.7,1.1-1,1.9-1c0.6,0,1,0.2,1.4,0.6c0.5,0.5,0.7,1.2,0.7,2.1V16.4z"/>
		<path class="st1" d="M157.5,13c0,0.2,0,0.5-0.1,0.6h-4.1c0,0.6,0.2,1.1,0.6,1.4c0.3,0.3,0.8,0.4,1.3,0.4c0.6,0,1.2-0.1,1.7-0.3
			l0.2,1c-0.6,0.3-1.3,0.4-2.1,0.4c-1,0-1.7-0.3-2.3-0.8c-0.5-0.6-0.8-1.3-0.8-2.3c0-0.9,0.3-1.7,0.8-2.3c0.5-0.7,1.2-1,2.2-1
			c0.9,0,1.6,0.3,2,1C157.3,11.6,157.5,12.3,157.5,13z M156.1,12.7c0-0.4-0.1-0.8-0.3-1.1c-0.2-0.4-0.6-0.6-1.1-0.6
			c-0.4,0-0.8,0.2-1.1,0.6c-0.2,0.3-0.4,0.7-0.4,1.1L156.1,12.7z"/>
	</g>
</g>
</svg>
