<?xml version="1.0" encoding="utf-8"?>
<!-- Generator: Adobe Illustrator 15.0.0, SVG Export Plug-In . SVG Version: 6.00 Build 0)  -->
<!DOCTYPE svg PUBLIC "-//W3C//DTD SVG 1.1//EN" "http://www.w3.org/Graphics/SVG/1.1/DTD/svg11.dtd">
<svg version="1.1" id="Layer_1" xmlns="http://www.w3.org/2000/svg" xmlns:xlink="http://www.w3.org/1999/xlink" x="0px" y="0px"
	 width="841.89px" height="595.28px" viewBox="0 0 841.89 595.28" enable-background="new 0 0 841.89 595.28" xml:space="preserve">
<g>
	
		<path fill="red" stroke="#000000" stroke-width="1.4174" stroke-linecap="round" stroke-linejoin="round" stroke-miterlimit="10" d="
		M415.211,302.649c-0.116,0.814-0.83,1.041-1.01,1.101c-4.701,1.559-8.454,3.857-10.014,6.35c-3.371,5.383,12.03,5.367,15.733,5.365
		c3.702,0.002,19.104,0.018,15.733-5.365c-1.561-2.492-5.313-4.791-10.014-6.35c-0.18-0.06-0.895-0.286-1.011-1.101
		 M416.069,299.464c-2.599-2.288-3.997-6.045-3.997-9.692c-0.068-5.803,3.77-8.73,8.007-8.783c4.238,0.053,8.076,2.98,8.008,8.783
		c0,3.618-1.376,7.343-3.933,9.636C421.321,301.945,418.927,301.979,416.069,299.464L416.069,299.464z"/>
</g>
</svg>
